<svg width="13" height="13" viewBox="0 0 13 13" fill="none" xmlns="http://www.w3.org/2000/svg">
<path d="M10.2918 2.16665H9.2085V1.62498C9.2085 1.48132 9.15143 1.34355 9.04985 1.24196C8.94826 1.14038 8.81049 1.08331 8.66683 1.08331C8.52317 1.08331 8.3854 1.14038 8.28381 1.24196C8.18223 1.34355 8.12516 1.48132 8.12516 1.62498V2.16665H4.87516V1.62498C4.87516 1.48132 4.81809 1.34355 4.71651 1.24196C4.61493 1.14038 4.47716 1.08331 4.3335 1.08331C4.18984 1.08331 4.05206 1.14038 3.95048 1.24196C3.8489 1.34355 3.79183 1.48132 3.79183 1.62498V2.16665H2.7085C2.27752 2.16665 1.86419 2.33785 1.55945 2.6426C1.2547 2.94734 1.0835 3.36067 1.0835 3.79165V10.2916C1.0835 10.7226 1.2547 11.1359 1.55945 11.4407C1.86419 11.7454 2.27752 11.9166 2.7085 11.9166H10.2918C10.7228 11.9166 11.1361 11.7454 11.4409 11.4407C11.7456 11.1359 11.9168 10.7226 11.9168 10.2916V3.79165C11.9168 3.36067 11.7456 2.94734 11.4409 2.6426C11.1361 2.33785 10.7228 2.16665 10.2918 2.16665ZM10.8335 10.2916C10.8335 10.4353 10.7764 10.5731 10.6748 10.6747C10.5733 10.7762 10.4355 10.8333 10.2918 10.8333H2.7085C2.56484 10.8333 2.42706 10.7762 2.32548 10.6747C2.2239 10.5731 2.16683 10.4353 2.16683 10.2916V6.49998H10.8335V10.2916ZM10.8335 5.41665H2.16683V3.79165C2.16683 3.64799 2.2239 3.51021 2.32548 3.40863C2.42706 3.30705 2.56484 3.24998 2.7085 3.24998H3.79183V3.79165C3.79183 3.93531 3.8489 4.07308 3.95048 4.17466C4.05206 4.27624 4.18984 4.33331 4.3335 4.33331C4.47716 4.33331 4.61493 4.27624 4.71651 4.17466C4.81809 4.07308 4.87516 3.93531 4.87516 3.79165V3.24998H8.12516V3.79165C8.12516 3.93531 8.18223 4.07308 8.28381 4.17466C8.3854 4.27624 8.52317 4.33331 8.66683 4.33331C8.81049 4.33331 8.94826 4.27624 9.04985 4.17466C9.15143 4.07308 9.2085 3.93531 9.2085 3.79165V3.24998H10.2918C10.4355 3.24998 10.5733 3.30705 10.6748 3.40863C10.7764 3.51021 10.8335 3.64799 10.8335 3.79165V5.41665Z" fill="#A0AEC0"/>
</svg>
