<svg width="40" height="40" viewBox="0 0 40 40" fill="none" xmlns="http://www.w3.org/2000/svg">
<path d="M17.9886 4.99286C18.5591 4.53516 19.2687 4.28572 20.0001 4.28572C20.7315 4.28572 21.441 4.53516 22.0115 4.99286L33.0829 13.8757C33.4583 14.1769 33.7613 14.5585 33.9695 14.9925C34.1777 15.4264 34.2858 15.9016 34.2858 16.3829V32.4971C34.2858 33.3496 33.9471 34.1672 33.3443 34.77C32.7415 35.3728 31.924 35.7114 31.0715 35.7114H26.7858C25.9333 35.7114 25.1157 35.3728 24.5129 34.77C23.9101 34.1672 23.5715 33.3496 23.5715 32.4971V23.9257C23.5715 23.6416 23.4586 23.369 23.2577 23.1681C23.0568 22.9672 22.7842 22.8543 22.5001 22.8543H17.5001C17.2159 22.8543 16.9434 22.9672 16.7425 23.1681C16.5415 23.369 16.4286 23.6416 16.4286 23.9257V32.4971C16.4286 33.3496 16.09 34.1672 15.4872 34.77C14.8844 35.3728 14.0668 35.7114 13.2144 35.7114H8.92864C8.07641 35.7114 7.25906 35.373 6.6563 34.7705C6.05355 34.168 5.71473 33.3508 5.71436 32.4986V16.3843C5.71436 15.41 6.15721 14.4871 6.91721 13.8771L17.9886 4.99286ZM20.6701 6.66429C20.48 6.51196 20.2437 6.42896 20.0001 6.42896C19.7565 6.42896 19.5202 6.51196 19.3301 6.66429L8.25864 15.5471C8.13342 15.6475 8.03233 15.7747 7.96285 15.9193C7.89337 16.064 7.85727 16.2224 7.85721 16.3829V32.4971C7.85721 33.09 8.33721 33.5686 8.92864 33.5686H13.2144C13.4985 33.5686 13.771 33.4557 13.972 33.2548C14.1729 33.0538 14.2858 32.7813 14.2858 32.4971V23.9257C14.2858 23.0732 14.6244 22.2557 15.2272 21.6529C15.83 21.0501 16.6476 20.7114 17.5001 20.7114H22.5001C23.3526 20.7114 24.1701 21.0501 24.7729 21.6529C25.3757 22.2557 25.7144 23.0732 25.7144 23.9257V32.4971C25.7144 33.09 26.1944 33.5686 26.7858 33.5686H31.0715C31.3557 33.5686 31.6282 33.4557 31.8291 33.2548C32.03 33.0538 32.1429 32.7813 32.1429 32.4971V16.3829C32.143 16.2225 32.1072 16.0642 32.0379 15.9195C31.9687 15.7749 31.8679 15.6476 31.7429 15.5471L20.6701 6.66429Z" fill="url(#paint0_linear_123_81)"/>
<defs>
<linearGradient id="paint0_linear_123_81" x1="20.0001" y1="4.28572" x2="20.0001" y2="35.7114" gradientUnits="userSpaceOnUse">
<stop stop-color="#1691AC"/>
<stop offset="0.802885" stop-color="#093B46"/>
</linearGradient>
</defs>
</svg>
