<svg width="13" height="13" viewBox="0 0 13 13" fill="none" xmlns="http://www.w3.org/2000/svg">
<path fill-rule="evenodd" clip-rule="evenodd" d="M6.49993 11.4771L6.89055 11.037C7.33379 10.5298 7.73266 10.0471 8.08717 9.58904L8.37998 9.20275C9.6028 7.55567 10.2142 6.24886 10.2142 5.28232C10.2142 3.21966 8.55145 1.54761 6.49993 1.54761C4.44841 1.54761 2.78564 3.21966 2.78564 5.28232C2.78564 6.24886 3.39706 7.55588 4.61988 9.20337L4.91269 9.58966C5.41879 10.238 5.94822 10.8671 6.49993 11.4771Z" stroke="#A0AEC0" stroke-linecap="round" stroke-linejoin="round"/>
<path d="M6.49977 6.80953C7.35449 6.80953 8.04739 6.11664 8.04739 5.26191C8.04739 4.40719 7.35449 3.71429 6.49977 3.71429C5.64504 3.71429 4.95215 4.40719 4.95215 5.26191C4.95215 6.11664 5.64504 6.80953 6.49977 6.80953Z" stroke="#A0AEC0" stroke-linecap="round" stroke-linejoin="round"/>
</svg>
