<svg width="21" height="25" viewBox="0 0 21 25" fill="none" xmlns="http://www.w3.org/2000/svg">
<path d="M2.3233 24.5682C1.68439 24.5682 1.13764 24.3012 0.683051 23.767C0.228458 23.2329 0.000774434 22.59 0 21.8384V2.7298C0 1.97911 0.227684 1.33669 0.683051 0.802562C1.13842 0.268431 1.68517 0.000909934 2.3233 0H9.29321C9.62235 0 9.89843 0.131031 10.1215 0.393092C10.3445 0.655153 10.4556 0.979089 10.4549 1.3649C10.4541 1.75071 10.3426 2.0751 10.1203 2.33808C9.89805 2.60105 9.62235 2.73162 9.29321 2.7298H2.3233V21.8384H9.29321C9.62235 21.8384 9.89843 21.9694 10.1215 22.2315C10.3445 22.4936 10.4556 22.8175 10.4549 23.2033C10.4541 23.5891 10.3426 23.9135 10.1203 24.1765C9.89805 24.4395 9.62235 24.57 9.29321 24.5682H2.3233ZM16.4664 13.649H8.13156C7.80243 13.649 7.52673 13.518 7.30447 13.2559C7.0822 12.9939 6.97068 12.6699 6.96991 12.2841C6.96914 11.8983 7.08065 11.5744 7.30447 11.3123C7.52828 11.0502 7.80398 10.9192 8.13156 10.9192H16.4664L14.2883 8.36002C14.0753 8.10979 13.9689 7.80268 13.9689 7.43871C13.9689 7.07474 14.0753 6.75626 14.2883 6.48328C14.5013 6.2103 14.7723 6.06789 15.1015 6.05607C15.4306 6.04424 15.7113 6.17527 15.9437 6.44916L20.0966 11.3287C20.3289 11.6017 20.4451 11.9201 20.4451 12.2841C20.4451 12.6481 20.3289 12.9666 20.0966 13.2395L15.9437 18.1191C15.7113 18.392 15.4356 18.5231 15.1166 18.5122C14.7975 18.5012 14.5214 18.3588 14.2883 18.0849C14.0753 17.812 13.9739 17.488 13.984 17.1131C13.994 16.7382 14.1052 16.4252 14.3174 16.1741L16.4664 13.649Z" fill="white"/>
</svg>
