<svg width="40" height="40" viewBox="0 0 40 40" fill="none" xmlns="http://www.w3.org/2000/svg">
<path d="M31.6665 34.5833C32.1085 34.5833 32.5325 34.4077 32.845 34.0952C33.1576 33.7826 33.3332 33.3587 33.3332 32.9167V30.84C33.3398 26.1633 26.7098 22.5 19.9998 22.5C13.2898 22.5 6.6665 26.1633 6.6665 30.84V32.9167C6.6665 33.3587 6.8421 33.7826 7.15466 34.0952C7.46722 34.4077 7.89114 34.5833 8.33317 34.5833H31.6665ZM26.0065 11.4233C26.0065 12.2121 25.8511 12.9932 25.5493 13.722C25.2474 14.4508 24.805 15.1129 24.2472 15.6707C23.6894 16.2285 23.0273 16.6709 22.2985 16.9728C21.5697 17.2746 20.7886 17.43 19.9998 17.43C19.211 17.43 18.4299 17.2746 17.7012 16.9728C16.9724 16.6709 16.3103 16.2285 15.7525 15.6707C15.1947 15.1129 14.7523 14.4508 14.4504 13.722C14.1485 12.9932 13.9932 12.2121 13.9932 11.4233C13.9932 9.83027 14.626 8.30245 15.7525 7.17598C16.879 6.04952 18.4068 5.41667 19.9998 5.41667C21.5929 5.41667 23.1207 6.04952 24.2472 7.17598C25.3737 8.30245 26.0065 9.83027 26.0065 11.4233Z" stroke="url(#paint0_linear_123_75)" stroke-width="2.5" stroke-linecap="round" stroke-linejoin="round"/>
<defs>
<linearGradient id="paint0_linear_123_75" x1="19.9998" y1="5.41667" x2="19.9998" y2="34.5833" gradientUnits="userSpaceOnUse">
<stop stop-color="#1691AC"/>
<stop offset="0.802885" stop-color="#093B46"/>
</linearGradient>
</defs>
</svg>
