<svg width="63" height="63" viewBox="0 0 63 63" fill="none" xmlns="http://www.w3.org/2000/svg">
<path d="M31.5001 52.92C19.6561 52.92 10.0801 43.344 10.0801 31.5C10.0801 19.656 19.6561 10.08 31.5001 10.08C43.3441 10.08 52.9201 19.656 52.9201 31.5C52.9201 43.344 43.3441 52.92 31.5001 52.92ZM31.5001 12.6C21.0421 12.6 12.6001 21.042 12.6001 31.5C12.6001 41.958 21.0421 50.4 31.5001 50.4C41.9581 50.4 50.4001 41.958 50.4001 31.5C50.4001 21.042 41.9581 12.6 31.5001 12.6Z" fill="white"/>
<path d="M20.1602 30.24H42.8402V32.76H20.1602V30.24Z" fill="white"/>
<path d="M30.2402 20.16H32.7602V42.84H30.2402V20.16Z" fill="white"/>
</svg>
