<svg width="19" height="19" viewBox="0 0 19 19" fill="none" xmlns="http://www.w3.org/2000/svg">
<path d="M0.5 18.4688L6.35938 12.6094M18.4688 7.53125C18.4688 8.45461 18.2869 9.36892 17.9335 10.222C17.5802 11.0751 17.0623 11.8502 16.4093 12.5031C15.7564 13.156 14.9813 13.6739 14.1282 14.0273C13.2752 14.3806 12.3609 14.5625 11.4375 14.5625C10.5141 14.5625 9.59983 14.3806 8.74676 14.0273C7.89369 13.6739 7.11857 13.156 6.46566 12.5031C5.81274 11.8502 5.29483 11.0751 4.94147 10.222C4.58812 9.36892 4.40625 8.45461 4.40625 7.53125C4.40625 5.66645 5.14704 3.87802 6.46566 2.55941C7.78427 1.24079 9.5727 0.5 11.4375 0.5C13.3023 0.5 15.0907 1.24079 16.4093 2.55941C17.728 3.87802 18.4687 5.66645 18.4688 7.53125Z" stroke="#8E8E93" stroke-linecap="round" stroke-linejoin="round"/>
</svg>
