<svg width="20" height="20" viewBox="0 0 20 20" fill="none" xmlns="http://www.w3.org/2000/svg">
<g clip-path="url(#clip0_224_100)">
<path d="M17.2601 -0.0484619C16.9717 -0.0484619 16.697 0.0823073 16.4663 0.313077L15.914 0.841538L19.1586 4.08615L19.6878 3.53385C20.1493 3.07231 20.1493 2.38462 19.6878 1.92308L18.077 0.312307C17.8463 0.0815381 17.5486 -0.0484619 17.2601 -0.0484619ZM15.3847 1.29846L14.5432 1.99615L18.0047 5.45769L18.774 4.68846L15.3847 1.29846ZM14.0863 2.54846L7.14012 9.42385C7.10503 9.45296 7.07259 9.48514 7.0432 9.52L6.9955 9.54385C6.91229 9.64046 6.85441 9.75624 6.82704 9.88077L5.88935 13.1738C5.84916 13.3042 5.84528 13.443 5.87812 13.5754C5.91096 13.7078 5.97928 13.8287 6.07572 13.9252C6.17217 14.0216 6.2931 14.0899 6.42548 14.1228C6.55787 14.1556 6.6967 14.1517 6.82704 14.1115L10.1201 13.1738C10.2293 13.1477 10.3313 13.0974 10.4187 13.0267C10.506 12.956 10.5764 12.8668 10.6247 12.7654L17.4524 6.01L16.154 4.61538V4.68769L15.2401 3.77385H15.3124L14.0863 2.54846ZM0.625504 3.07692C0.447296 3.11082 0.2868 3.2066 0.172366 3.34736C0.0579326 3.48811 -0.00307522 3.66478 0.000119385 3.84615V19.2308C0.000119385 19.4348 0.0811631 19.6304 0.225422 19.7747C0.369681 19.919 0.565337 20 0.76935 20H16.154C16.358 20 16.5536 19.919 16.6979 19.7747C16.8422 19.6304 16.9232 19.4348 16.9232 19.2308V10.7692C16.9232 10.5652 16.8422 10.3696 16.6979 10.2253C16.5536 10.081 16.358 10 16.154 10C15.95 10 15.7543 10.081 15.61 10.2253C15.4658 10.3696 15.3847 10.5652 15.3847 10.7692V18.4615H1.53858V4.61538H9.23089C9.4349 4.61538 9.63056 4.53434 9.77482 4.39008C9.91908 4.24582 10.0001 4.05017 10.0001 3.84615C10.0001 3.64214 9.91908 3.44648 9.77482 3.30223C9.63056 3.15797 9.4349 3.07692 9.23089 3.07692H0.76935C0.745261 3.07579 0.721132 3.07579 0.697042 3.07692C0.672953 3.07579 0.648824 3.07579 0.624735 3.07692H0.625504ZM8.17397 10.6254L9.23166 10.6969L9.30397 11.8508L8.24627 12.1631L7.83781 11.7554L8.17397 10.6254Z" fill="white"/>
</g>
<defs>
<clipPath id="clip0_224_100">
<rect width="20" height="20" fill="white"/>
</clipPath>
</defs>
</svg>
